<svg xmlns="http://www.w3.org/2000/svg" width="960" height="540" viewBox="0 0 960 540">
  <defs>
    <radialGradient id="bg" cx="20%" cy="50%" r="70%">
      <stop offset="0%" stop-color="#3a0000"/>
      <stop offset="100%" stop-color="#080808"/>
    </radialGradient>
    <radialGradient id="spotlight" cx="50%" cy="50%" r="50%">
      <stop offset="0%" stop-color="#ff1e1e" stop-opacity="0.15"/>
      <stop offset="100%" stop-color="#ff1e1e" stop-opacity="0"/>
    </radialGradient>
    <linearGradient id="scanline" x1="0" y1="0" x2="0" y2="1">
      <stop offset="0%" stop-color="rgba(0,0,0,0)"/>
      <stop offset="50%" stop-color="rgba(255,255,255,0.015)"/>
      <stop offset="100%" stop-color="rgba(0,0,0,0)"/>
    </linearGradient>
  </defs>
  <rect width="960" height="540" fill="url(#bg)"/>
  <rect width="960" height="540" fill="url(#spotlight)"/>
  <!-- Film strip top -->
  <rect x="0" y="0" width="960" height="44" fill="#0a0a0a"/>
  <rect x="0" y="38" width="960" height="2" fill="rgba(255,30,30,0.3)"/>
  <!-- Film holes top -->
  <rect x="18" y="8" width="28" height="22" rx="3" fill="#1a1a1a" stroke="rgba(255,255,255,0.1)" stroke-width="1"/>
  <rect x="66" y="8" width="28" height="22" rx="3" fill="#1a1a1a" stroke="rgba(255,255,255,0.1)" stroke-width="1"/>
  <rect x="114" y="8" width="28" height="22" rx="3" fill="#1a1a1a" stroke="rgba(255,255,255,0.1)" stroke-width="1"/>
  <rect x="162" y="8" width="28" height="22" rx="3" fill="#1a1a1a" stroke="rgba(255,255,255,0.1)" stroke-width="1"/>
  <rect x="210" y="8" width="28" height="22" rx="3" fill="#1a1a1a" stroke="rgba(255,255,255,0.1)" stroke-width="1"/>
  <rect x="750" y="8" width="28" height="22" rx="3" fill="#1a1a1a" stroke="rgba(255,255,255,0.1)" stroke-width="1"/>
  <rect x="798" y="8" width="28" height="22" rx="3" fill="#1a1a1a" stroke="rgba(255,255,255,0.1)" stroke-width="1"/>
  <rect x="846" y="8" width="28" height="22" rx="3" fill="#1a1a1a" stroke="rgba(255,255,255,0.1)" stroke-width="1"/>
  <rect x="894" y="8" width="28" height="22" rx="3" fill="#1a1a1a" stroke="rgba(255,255,255,0.1)" stroke-width="1"/>
  <!-- Film strip bottom -->
  <rect x="0" y="496" width="960" height="44" fill="#0a0a0a"/>
  <rect x="0" y="496" width="960" height="2" fill="rgba(255,30,30,0.3)"/>
  <rect x="18" y="510" width="28" height="22" rx="3" fill="#1a1a1a" stroke="rgba(255,255,255,0.1)" stroke-width="1"/>
  <rect x="66" y="510" width="28" height="22" rx="3" fill="#1a1a1a" stroke="rgba(255,255,255,0.1)" stroke-width="1"/>
  <rect x="114" y="510" width="28" height="22" rx="3" fill="#1a1a1a" stroke="rgba(255,255,255,0.1)" stroke-width="1"/>
  <rect x="162" y="510" width="28" height="22" rx="3" fill="#1a1a1a" stroke="rgba(255,255,255,0.1)" stroke-width="1"/>
  <rect x="210" y="510" width="28" height="22" rx="3" fill="#1a1a1a" stroke="rgba(255,255,255,0.1)" stroke-width="1"/>
  <rect x="750" y="510" width="28" height="22" rx="3" fill="#1a1a1a" stroke="rgba(255,255,255,0.1)" stroke-width="1"/>
  <rect x="798" y="510" width="28" height="22" rx="3" fill="#1a1a1a" stroke="rgba(255,255,255,0.1)" stroke-width="1"/>
  <rect x="846" y="510" width="28" height="22" rx="3" fill="#1a1a1a" stroke="rgba(255,255,255,0.1)" stroke-width="1"/>
  <rect x="894" y="510" width="28" height="22" rx="3" fill="#1a1a1a" stroke="rgba(255,255,255,0.1)" stroke-width="1"/>
  <!-- Horizontal scan lines -->
  <rect x="0" y="44" width="960" height="452" fill="url(#scanline)" opacity="0.4"/>
  <!-- Center content -->
  <text x="480" y="230" text-anchor="middle" font-family="Montserrat, sans-serif" font-size="72" font-weight="800" letter-spacing="12" fill="rgba(255,255,255,0.08)">SHOWREEL</text>
  <text x="480" y="290" text-anchor="middle" font-family="Montserrat, sans-serif" font-size="18" font-weight="700" letter-spacing="8" fill="rgba(255,255,255,0.5)">SUBHASISH SAHOO</text>
  <text x="480" y="318" text-anchor="middle" font-family="Poppins, sans-serif" font-size="11" letter-spacing="4" fill="#8b8b8b">VIDEO EDITOR · NEW DELHI · 2025</text>
  <!-- Decorative lines -->
  <line x1="340" y1="340" x2="620" y2="340" stroke="rgba(255,30,30,0.4)" stroke-width="1"/>
  <circle cx="340" cy="340" r="3" fill="#ff1e1e"/>
  <circle cx="620" cy="340" r="3" fill="#ff1e1e"/>
  <!-- Corner marks -->
  <path d="M80 80 L80 110 L110 110" fill="none" stroke="rgba(255,30,30,0.5)" stroke-width="2"/>
  <path d="M880 80 L880 110 L850 110" fill="none" stroke="rgba(255,30,30,0.5)" stroke-width="2"/>
  <path d="M80 460 L80 430 L110 430" fill="none" stroke="rgba(255,30,30,0.5)" stroke-width="2"/>
  <path d="M880 460 L880 430 L850 430" fill="none" stroke="rgba(255,30,30,0.5)" stroke-width="2"/>
  <!-- Timecode -->
  <text x="90" y="475" font-family="monospace" font-size="11" fill="rgba(255,255,255,0.3)" letter-spacing="2">00:00:00:00</text>
  <text x="820" y="475" font-family="monospace" font-size="11" fill="rgba(255,255,255,0.3)" letter-spacing="2">2025 REEL</text>
</svg>
